# xmcd CD database file
#
# Track frame offsets:
#	150
#	20025
#	39365
#	62205
#	82070
#	101410
#
# Disc length: 1654 seconds
#
# Revision: 1
# Processed by: cddbd v1.5.2PL0 Copyright (c) Steve Scherf et al.
# Submitted via: CDex 1.60beta1-cs1
#
DISCID=48067406
DTITLE=横山 ルリカ - Walk My Way
DYEAR=2013
DGENRE=Pop
TTITLE0=Walk My Way
TTITLE1=永久に咲く花
TTITLE2=街のアカリ
TTITLE3=Walk My Way(Instrumental)
TTITLE4=永久に咲く花(Instrumental)
TTITLE5=街のアカリ(Instrumental)
EXTD=YEAR: 2013
EXTT0=
EXTT1=
EXTT2=
EXTT3=
EXTT4=
EXTT5=
PLAYORDER=
